<svg xmlns="http://www.w3.org/2000/svg" width="1400" height="360" viewBox="0 0 1400 360">
  <g fill="none" stroke-linecap="round" stroke-linejoin="round">
    <rect x="16" y="16" width="296" height="296" rx="64" fill="none" stroke="#e4e9ff" stroke-opacity="0.35" stroke-width="12"/>
    <path d="M72 120h184" stroke="#edf1ff" stroke-opacity="0.88" stroke-width="28"/>
    <path d="M128 120v152" stroke="#edf1ff" stroke-opacity="0.88" stroke-width="28"/>
    <path d="M192 168l72 72" stroke="#b9c6ff" stroke-opacity="0.9" stroke-width="26"/>
    <path d="M192 240l-36 36" stroke="#edf1ff" stroke-opacity="0.88" stroke-width="26"/>
  </g>
  <g transform="translate(344,82)">
    <path d="M0 0h168v28H96v156H60V28H0z" fill="#edf1ff" fill-opacity="0.95"/>
    <path d="M186 0h38l-54 84 58 100h-40l-40-70-40 70h-40l59-100-54-84h38l36 58z" fill="#edf1ff" fill-opacity="0.95"/>
    <path d="M318 156V0h36v156h-36z" fill="#edf1ff" fill-opacity="0.95"/>
    <path d="M380 0h36v96c0 26 13 40 37 40 24 0 37-14 37-40V0h36v98c0 49-31 78-73 78s-73-29-73-78V0z" fill="#edf1ff" fill-opacity="0.95"/>
    <path d="M632 0h34l86 156h-40l-18-34h-92l-18 34h-40L632 0zm46 92l-30-58-30 58h60z" fill="#edf1ff" fill-opacity="0.95"/>
    <path d="M874 0h36v128h84v28h-120V0z" fill="#edf1ff" fill-opacity="0.95"/>
  </g>
  <g transform="translate(344,262)">
    <circle cx="6" cy="6" r="6" fill="#b9c6ff" fill-opacity="0.9"/>
    <text x="18" y="12" font-family="Inter, ui-sans-serif, system-ui, -apple-system, Segoe UI, Roboto, Helvetica, Arial" font-size="24" font-weight="500" fill="#e4e9ff" fill-opacity="0.9" letter-spacing="2">AI • Web • Software</text>
  </g>
  <title>Tylvra Wordmark</title>
</svg>